[Header]
FileType HTR
DataType HTRS
FileVersion 1
NumSegments 64
NumFrames 2
DataFrameRate 30
EulerRotationOrder ZYX
CalibrationUnits mm
RotationUnits Degrees
GlobalAxisofGravity Y
BoneLengthAxis Y
ScaleFactor 1.0
[SegmentNames&Hierarchy]
Hips	GLOBAL
Spine	Hips
Spine1	Spine
Spine2	Spine1
Neck	Spine2
Head	Neck
LeftEye	Head
RightEye	Head
LeftShoulder	Spine2
LeftArm	LeftShoulder
LeftForeArm	LeftArm
LeftHand	LeftForeArm
LeftHandThumb1	LeftHand
LeftHandThumb2	LeftHandThumb1
LeftHandThumb3	LeftHandThumb2
LeftHandThumb4	LeftHandThumb3
LeftHandIndex1	LeftHand
LeftHandIndex2	LeftHandIndex1
LeftHandIndex3	LeftHandIndex2
LeftHandIndex4	LeftHandIndex3
LeftHandMiddle1	LeftHand
LeftHandMiddle2	LeftHandMiddle1
LeftHandMiddle3	LeftHandMiddle2
LeftHandMiddle4	LeftHandMiddle3
LeftHandRing1	LeftHand
LeftHandRing2	LeftHandRing1
LeftHandRing3	LeftHandRing2
LeftHandRing4	LeftHandRing3
LeftHandPinky1	LeftHand
LeftHandPinky2	LeftHandPinky1
LeftHandPinky3	LeftHandPinky2
LeftHandPinky4	LeftHandPinky3
RightShoulder	Spine2
RightArm	RightShoulder
RightForeArm	RightArm
RightHand	RightForeArm
RightHandPinky1	RightHand
RightHandPinky2	RightHandPinky1
RightHandPinky3	RightHandPinky2
RightHandPinky4	RightHandPinky3
RightHandRing1	RightHand
RightHandRing2	RightHandRing1
RightHandRing3	RightHandRing2
RightHandRing4	RightHandRing3
RightHandMiddle1	RightHand
RightHandMiddle2	RightHandMiddle1
RightHandMiddle3	RightHandMiddle2
RightHandMiddle4	RightHandMiddle3
RightHandIndex1	RightHand
RightHandIndex2	RightHandIndex1
RightHandIndex3	RightHandIndex2
RightHandIndex4	RightHandIndex3
RightHandThumb1	RightHand
RightHandThumb2	RightHandThumb1
RightHandThumb3	RightHandThumb2
RightHandThumb4	RightHandThumb3
LeftUpLeg	Hips
LeftLeg	LeftUpLeg
LeftFoot	LeftLeg
LeftToeBase	LeftFoot
RightUpLeg	Hips
RightLeg	RightUpLeg
RightFoot	RightLeg
RightToeBase	RightFoot
[BasePosition]
Hips	0	0	0	0	0	0	1
Spine	0	0	0	0	0	0	1
Spine1	0	0	0	0	0	0	1
Spine2	0	0	0	0	0	0	1
Neck	0	0	0	0	0	0	1
Head	0	0	0	0	0	0	1
LeftEye	0	0	0	0	0	0	1
RightEye	0	0	0	0	0	0	1
LeftShoulder	0	0	0	0	0	0	1
LeftArm	0	0	0	0	0	0	1
LeftForeArm	0	0	0	0	0	0	1
LeftHand	0	0	0	0	0	0	1
LeftHandThumb1	0	0	0	0	0	0	1
LeftHandThumb2	0	0	0	0	0	0	1
LeftHandThumb3	0	0	0	0	0	0	1
LeftHandThumb4	0	0	0	0	0	0	1
LeftHandIndex1	0	0	0	0	0	0	1
LeftHandIndex2	0	0	0	0	0	0	1
LeftHandIndex3	0	0	0	0	0	0	1
LeftHandIndex4	0	0	0	0	0	0	1
LeftHandMiddle1	0	0	0	0	0	0	1
LeftHandMiddle2	0	0	0	0	0	0	1
LeftHandMiddle3	0	0	0	0	0	0	1
LeftHandMiddle4	0	0	0	0	0	0	1
LeftHandRing1	0	0	0	0	0	0	1
LeftHandRing2	0	0	0	0	0	0	1
LeftHandRing3	0	0	0	0	0	0	1
LeftHandRing4	0	0	0	0	0	0	1
LeftHandPinky1	0	0	0	0	0	0	1
LeftHandPinky2	0	0	0	0	0	0	1
LeftHandPinky3	0	0	0	0	0	0	1
LeftHandPinky4	0	0	0	0	0	0	1
RightShoulder	0	0	0	0	0	0	1
RightArm	0	0	0	0	0	0	1
RightForeArm	0	0	0	0	0	0	1
RightHand	0	0	0	0	0	0	1
RightHandPinky1	0	0	0	0	0	0	1
RightHandPinky2	0	0	0	0	0	0	1
RightHandPinky3	0	0	0	0	0	0	1
RightHandPinky4	0	0	0	0	0	0	1
RightHandRing1	0	0	0	0	0	0	1
RightHandRing2	0	0	0	0	0	0	1
RightHandRing3	0	0	0	0	0	0	1
RightHandRing4	0	0	0	0	0	0	1
RightHandMiddle1	0	0	0	0	0	0	1
RightHandMiddle2	0	0	0	0	0	0	1
RightHandMiddle3	0	0	0	0	0	0	1
RightHandMiddle4	0	0	0	0	0	0	1
RightHandIndex1	0	0	0	0	0	0	1
RightHandIndex2	0	0	0	0	0	0	1
RightHandIndex3	0	0	0	0	0	0	1
RightHandIndex4	0	0	0	0	0	0	1
RightHandThumb1	0	0	0	0	0	0	1
RightHandThumb2	0	0	0	0	0	0	1
RightHandThumb3	0	0	0	0	0	0	1
RightHandThumb4	0	0	0	0	0	0	1
LeftUpLeg	0	0	0	0	0	0	1
LeftLeg	0	0	0	0	0	0	1
LeftFoot	0	0	0	0	0	0	1
LeftToeBase	0	0	0	0	0	0	1
RightUpLeg	0	0	0	0	0	0	1
RightLeg	0	0	0	0	0	0	1
RightFoot	0	0	0	0	0	0	1
RightToeBase	0	0	0	0	0	0	1
[Hips]
1	4.293397903	1033.941284	13.63319588	-4.120161533	6.294224262	-3.426054001	1.0
2	10.5474453	1030.885986	9.283691406	-3.781963348	4.053897381	-3.405254602	1.0
[Spine]
1	0	101.8159943	1.315000057	3.367686749	1.381697536	2.812245131	1.0
2	0	101.8159943	1.315000057	3.475562811	1.169205785	2.568088055	1.0
[Spine1]
1	0	100.8349991	-10.00800037	1.160681248	0.3080525696	1.55933249	1.0
2	0	100.8349991	-10.00800037	1.254806399	0.1545573324	1.547007561	1.0
[Spine2]
1	0	91	-13.73399925	1.135433674	0.3307680488	1.56271863	1.0
2	0	91	-13.73399925	1.225631475	0.1748726964	1.598063231	1.0
[Neck]
1	0	166.7169952	-25.16200066	5.625518322	-0.1231574938	0.4447526634	1.0
2	0	166.7169952	-25.16200066	5.51205349	-0.8609791398	0.7391084433	1.0
[Head]
1	0	96.17900085	16.84999847	-7.567391872	1.353147268	-0.2609974146	1.0
2	0	96.17900085	16.84999847	-7.892128468	-0.8001522422	0.6023359895	1.0
[LeftEye]
1	30.6760006	64.09500122	92.83599854	0	0	0	1.0
2	30.6760006	64.09500122	92.83599854	0	0	0	1.0
[RightEye]
1	-30.6760006	64.09500122	92.83499908	0	0	0	1.0
2	-30.6760006	64.09500122	92.83499908	0	0	0	1.0
[LeftShoulder]
1	45.70400238	109.4599991	-26.28000069	4.898258209	-16.79118156	-13.20289803	1.0
2	45.70400238	109.4599991	-26.28000069	4.900959969	-16.86252213	-12.96213436	1.0
[LeftArm]
1	105.923996	-5.24600029	-22.32099915	20.12805748	-3.088296413	-71.0038147	1.0
2	105.923996	-5.24600029	-22.32099915	20.37103462	-2.579013586	-70.54322052	1.0
[LeftForeArm]
1	278.414978	-0.0009999999311	0	-3.18208663e-06	-1.459353209	-0.0001961688104	1.0
2	278.414978	-0.0009999999311	0	-1.366621376e-07	-1.769624352	-0.0002044717112	1.0
[LeftHand]
1	283.2879944	0	0	-32.9553566	-4.52331686	-4.439667702	1.0
2	283.2879944	0	0	-33.32161713	-4.401920319	-4.367538452	1.0
[LeftHandThumb1]
1	24.6609993	-15.75	26.8239994	-0.4889863729	2.201392412	4.818544865	1.0
2	24.6609993	-15.75	26.8239994	-0.4889863729	2.201392412	4.818544865	1.0
[LeftHandThumb2]
1	32.29800034	-18.64699936	18.64699936	19.88581276	19.96445465	23.26737785	1.0
2	32.29800034	-18.64699936	18.64699936	19.84446907	19.901968	23.24374771	1.0
[LeftHandThumb3]
1	26.52600098	-15.31499958	15.31499958	-13.14613628	5.551262379	7.973786831	1.0
2	26.52600098	-15.31499958	15.31499958	-13.14207363	5.561294079	7.974240303	1.0
[LeftHandThumb4]
1	19.54599953	-11.28499985	11.28499985	0	0	0	1.0
2	19.54599953	-11.28499985	11.28499985	0	0	0	1.0
[LeftHandIndex1]
1	91.09299469	-5.170999527	22.60099792	0.148052007	-0.9618669152	-7.594509602	1.0
2	91.09299469	-5.170999527	22.60099792	0.1284504831	-0.9891833663	-7.627675056	1.0
[LeftHandIndex2]
1	36.76399994	0	0	-0.2667911053	1.745450616	-17.37934113	1.0
2	36.76399994	0	0	-0.2668612003	1.745682359	-17.3817215	1.0
[LeftHandIndex3]
1	28.83100128	0	0	-0.05747087672	0.8176262379	-8.041209221	1.0
2	28.83100128	0	0	-0.05750494823	0.8178672194	-8.043600082	1.0
[LeftHandIndex4]
1	23.92700005	0	0	0	0	0	1.0
2	23.92700005	0	0	0	0	0	1.0
[LeftHandMiddle1]
1	95.33399963	0	0	-0.7942891717	2.538621664	-15.71736908	1.0
2	95.33399963	0	0	-0.8015348315	2.535418987	-15.82492542	1.0
[LeftHandMiddle2]
1	36.98199844	0	0	-0.2675089836	1.747743726	-17.40293312	1.0
2	36.98199844	0	0	-0.2674824297	1.747665048	-17.40210152	1.0
[LeftHandMiddle3]
1	29.50900078	0	0	-0.2991087437	1.845490694	-18.4107933	1.0
2	29.50900078	0	0	-0.2990829349	1.845414758	-18.41001129	1.0
[LeftHandMiddle4]
1	28.3390007	0	0	0	0	0	1.0
2	28.3390007	0	0	0	0	0	1.0
[LeftHandRing1]
1	91.04499817	-0.4390000105	-18.65100098	-1.184960008	3.436642885	-21.16633034	1.0
2	91.04499817	-0.4390000105	-18.65100098	-1.190543652	3.427579641	-21.2404747	1.0
[LeftHandRing2]
1	31.54000092	0	0	-0.3849360943	2.085561752	-20.91279221	1.0
2	31.54000092	0	0	-0.3840569556	2.083262444	-20.88860703	1.0
[LeftHandRing3]
1	29.37700081	0	0	-0.2818059921	1.79270339	-17.8657589	1.0
2	29.37700081	0	0	-0.2810510695	1.790361524	-17.84165192	1.0
[LeftHandRing4]
1	26.47500038	0	0	0	0	0	1.0
2	26.47500038	0	0	0	0	0	1.0
[LeftHandPinky1]
1	80.77799988	-4.887000084	-38.06099701	-1.708469629	5.355367184	-27.16540337	1.0
2	80.77799988	-4.887000084	-38.06099701	-1.732900739	5.263093472	-27.25391388	1.0
[LeftHandPinky2]
1	36	0	0	-0.2676212192	1.74810648	-17.40662956	1.0
2	36	0	0	-0.2719507515	1.761849165	-17.5479908	1.0
[LeftHandPinky3]
1	21.14200211	0	0	-0.2408551574	1.660355687	-16.50660896	1.0
2	21.14200211	0	0	-0.2449081838	1.673964739	-16.6459198	1.0
[LeftHandPinky4]
1	19.75699997	0	0	0	0	0	1.0
2	19.75699997	0	0	0	0	0	1.0
[RightShoulder]
1	-45.70000076	109.4620056	-26.28000069	5.183753014	14.51022911	15.52843475	1.0
2	-45.70000076	109.4620056	-26.28000069	5.221980572	14.60659695	15.68366337	1.0
[RightArm]
1	-105.9280014	-5.248000145	-22.32099915	30.23855591	2.220922709	62.62531281	1.0
2	-105.9280014	-5.248000145	-22.32099915	27.58189774	3.018703222	62.0970993	1.0
[RightForeArm]
1	-278.414978	0	0	-2.973517894e-06	6.693585873	7.405031283e-06	1.0
2	-278.414978	0	0	-8.923628229e-06	7.626993179	-5.573680937e-06	1.0
[RightHand]
1	-283.2879944	0	0.0009999999311	-20.0767765	1.85565722	6.54536438	1.0
2	-283.2879944	0	0.0009999999311	-18.40475273	2.985933304	4.211498737	1.0
[RightHandPinky1]
1	-80.76699829	-4.885000229	-38.06000137	-1.521216035	-4.69613266	26.50617218	1.0
2	-80.76699829	-4.885000229	-38.06000137	-1.525604606	-4.659470081	26.56643295	1.0
[RightHandPinky2]
1	-36	0	0.0009999999311	-0.2127554864	-1.388854027	17.43751717	1.0
2	-36	0	0.0009999999311	-0.213078782	-1.389914632	17.45131683	1.0
[RightHandPinky3]
1	-21.14200211	0	0	-0.1919142455	-1.320610166	16.5364151	1.0
2	-21.14200211	0	0	-0.1922350079	-1.321663857	16.55007744	1.0
[RightHandPinky4]
1	-19.75699997	0	0	0	0	0	1.0
2	-19.75699997	0	0	0	0	0	1.0
[RightHandRing1]
1	-91.03599548	-0.4390000105	-18.65100098	-1.045256734	-2.878080606	20.47820473	1.0
2	-91.03599548	-0.4390000105	-18.65100098	-1.051050067	-2.89013505	20.56606674	1.0
[RightHandRing2]
1	-31.54000092	0	0	-0.306688875	-1.658759356	20.94924545	1.0
2	-31.54000092	0	0	-0.3075912893	-1.661106467	20.98041344	1.0
[RightHandRing3]
1	-29.37700081	0	0	-0.2245387435	-1.425865412	17.8977108	1.0
2	-29.37700081	0	0	-0.2253173888	-1.428264856	17.92883682	1.0
[RightHandRing4]
1	-26.47500038	0	0	0	0	0	1.0
2	-26.47500038	0	0	0	0	0	1.0
[RightHandMiddle1]
1	-95.32500458	0	0	-0.701710403	-2.087755203	15.01529789	1.0
2	-95.32500458	0	0	-0.7087201476	-2.027156353	15.13445663	1.0
[RightHandMiddle2]
1	-36.98199844	0	0	-0.2132349461	-1.390355706	17.43749809	1.0
2	-36.98199844	0	0	-0.2135516852	-1.39137578	17.4506073	1.0
[RightHandMiddle3]
1	-29.50900078	0	0	-0.238405481	-1.470119357	18.44693375	1.0
2	-29.50900078	0	0	-0.2387556434	-1.471158504	18.46041107	1.0
[RightHandMiddle4]
1	-28.3390007	0	0.0009999999311	0	0	0	1.0
2	-28.3390007	0	0.0009999999311	0	0	0	1.0
[RightHandIndex1]
1	-91.08300018	-5.167999744	22.60099792	0.1801478416	1.251973629	6.825016975	1.0
2	-91.08300018	-5.167999744	22.60099792	0.1749149859	1.258835673	6.936044693	1.0
[RightHandIndex2]
1	-36.76399994	0	0	-0.2125053257	-1.38805902	17.40765953	1.0
2	-36.76399994	0	0	-0.2128780335	-1.389236689	17.42290497	1.0
[RightHandIndex3]
1	-28.83100128	0	0	-0.0457629934	-0.6501094103	8.053524017	1.0
2	-28.83100128	0	0	-0.0459376201	-0.6513307095	8.06880188	1.0
[RightHandIndex4]
1	-23.92700005	0	0	0	0	0	1.0
2	-23.92700005	0	0	0	0	0	1.0
[RightHandThumb1]
1	-24.64799881	-15.72700024	26.82600021	-1.658462644	-0.289145112	-4.221315384	1.0
2	-24.64799881	-15.72700024	26.82600021	-1.658462644	-0.289145112	-4.221315384	1.0
[RightHandThumb2]
1	-32.29800034	-18.64699936	18.64699936	22.25262451	-23.88951492	-24.2830658	1.0
2	-32.29800034	-18.64699936	18.64699936	22.08229256	-23.94699097	-24.24195862	1.0
[RightHandThumb3]
1	-26.52600098	-15.31399918	15.31399918	-14.49032021	-6.749182701	-11.35935593	1.0
2	-26.52600098	-15.31399918	15.31399918	-14.46506596	-6.816597939	-11.35758972	1.0
[RightHandThumb4]
1	-19.54599953	-11.28499985	11.28499985	0	0	0	1.0
2	-19.54599953	-11.28499985	11.28499985	0	0	0	1.0
[LeftUpLeg]
1	82.07800293	-67.51699829	-15.99599934	-8.352867126	16.22598457	7.739042759	1.0
2	82.07800293	-67.51699829	-15.99599934	-9.787333488	15.97540283	7.493434906	1.0
[LeftLeg]
1	0	-443.7049866	2.845999956	12.30437088	1.101841569	4.508026123	1.0
2	0	-443.7049866	2.845999956	15.18625736	2.830125332	5.035619259	1.0
[LeftFoot]
1	0	-444.2789917	-29.8219986	1.189394832	0.6679000854	-7.099725246	1.0
2	0	-444.2789917	-29.8219986	-0.2785586715	1.121319175	-6.998496532	1.0
[LeftToeBase]
1	0	-87.28699493	107.1060028	-4.928527832	1.077571233e-05	1.515610052e-06	1.0
2	0	-87.28699493	107.1060028	-4.928521633	3.066493036e-06	-4.087938237e-07	1.0
[RightUpLeg]
1	-82.07800293	-67.51699829	-15.99599934	-0.02144624852	-10.40844154	3.446426868	1.0
2	-82.07800293	-67.51699829	-15.99599934	-2.306713104	-9.824669838	2.813983917	1.0
[RightLeg]
1	0	-443.7049866	2.861999989	8.043478012	-9.219026566	-4.558063507	1.0
2	0	-443.7049866	2.861999989	11.21350193	-7.197742939	-4.141768932	1.0
[RightFoot]
1	0	-444.2770081	-29.83799934	-3.772298574	-1.437572837	3.300645828	1.0
2	0	-444.2770081	-29.83799934	-4.985237122	-1.411573887	3.495658875	1.0
[RightToeBase]
1	0	-87.28699493	107.1060028	-7.293309689	-1.408405979e-06	5.171388011e-07	1.0
2	0	-87.28699493	107.1060028	-7.368155003	-8.41405199e-06	6.151341267e-07	1.0
[EndOfFile]
